<svg width="20" height="20" viewBox="0 0 20 20" fill="none" xmlns="http://www.w3.org/2000/svg">
<g id="Frame">
<path id="Vector" d="M15.0262 13.8474L18.5951 17.4163L17.4166 18.5948L13.8477 15.0259C12.5644 16.0526 10.937 16.6667 9.16699 16.6667C5.02699 16.6667 1.66699 13.3067 1.66699 9.16675C1.66699 5.02675 5.02699 1.66675 9.16699 1.66675C13.307 1.66675 16.667 5.02675 16.667 9.16675C16.667 10.9367 16.0528 12.5642 15.0262 13.8474ZM13.3542 13.2291C14.3732 12.1789 15.0003 10.7464 15.0003 9.16675C15.0003 5.94383 12.3899 3.33341 9.16699 3.33341C5.94408 3.33341 3.33366 5.94383 3.33366 9.16675C3.33366 12.3897 5.94408 15.0001 9.16699 15.0001C10.7467 15.0001 12.1792 14.373 13.2293 13.354L13.3542 13.2291Z" fill="white"/>
</g>
</svg>
