<svg width="24" height="24" viewBox="0 0 24 24" fill="none" xmlns="http://www.w3.org/2000/svg">
<g id="104493_linkedin_icon 1">
<g id="Group">
<path id="Vector" d="M12.7302 11.4728V11.4402C12.7234 11.4512 12.7162 11.4622 12.709 11.4728H12.7302Z" fill="white"/>
<path id="Vector_2" d="M20.5214 2.00012H3.47739C2.66161 2.00012 2 2.64188 2 3.43283V20.5678C2 21.3584 2.66161 22.0001 3.47739 22.0001H20.5214C21.3384 22.0001 22 21.358 22 20.5678V3.43283C22 2.64148 21.338 2.00012 20.5214 2.00012ZM8.06211 18.7427H5.04138V9.71173H8.06211V18.7427ZM6.55195 8.47807H6.53171C5.51846 8.47807 4.86292 7.78443 4.86292 6.91789C4.86292 6.03205 5.5387 5.35772 6.57178 5.35772C7.60526 5.35772 8.24097 6.03205 8.2612 6.91789C8.2612 7.78443 7.60486 8.47807 6.55195 8.47807ZM18.955 18.7427H15.9342V13.9101C15.9342 12.6966 15.4972 11.8682 14.4042 11.8682C13.5699 11.8682 13.0729 12.4268 12.854 12.9664C12.7743 13.159 12.7549 13.4284 12.7549 13.6986V18.7423H9.73414C9.73414 18.7423 9.7738 10.5578 9.73414 9.71133H12.7549V10.9896C13.1563 10.3744 13.8742 9.49821 15.4778 9.49821C17.465 9.49821 18.9554 10.7894 18.9554 13.5635V18.7427H18.955Z" fill="white"/>
</g>
</g>
</svg>
