<svg width="24" height="24" viewBox="0 0 24 24" fill="none" xmlns="http://www.w3.org/2000/svg">
<g id="104501_twitter_bird_icon 1">
<path id="Vector" d="M22.3673 6.37751C21.6007 6.71829 20.7756 6.94816 19.9099 7.05103C20.7938 6.52187 21.4716 5.68367 21.7912 4.68376C20.9644 5.1744 20.0492 5.53042 19.0742 5.72262C18.294 4.89119 17.1819 4.37134 15.9513 4.37134C13.5887 4.37134 11.6731 6.28692 11.6731 8.64996C11.6731 8.98482 11.7108 9.31121 11.784 9.6249C8.22802 9.44625 5.07504 7.74318 2.96473 5.1545C2.59643 5.78612 2.38561 6.52102 2.38561 7.30588C2.38561 8.79008 3.14083 10.0999 4.28891 10.867C3.58787 10.8445 2.9279 10.6519 2.35089 10.3314C2.35047 10.3492 2.35047 10.3674 2.35047 10.3856C2.35047 12.4583 3.82536 14.1872 5.78285 14.5809C5.42387 14.6782 5.04583 14.7307 4.65552 14.7307C4.3795 14.7307 4.11153 14.704 3.85034 14.6537C4.39517 16.3533 5.97505 17.5907 7.84702 17.625C6.38271 18.7727 4.53825 19.4568 2.53335 19.4568C2.18833 19.4568 1.84755 19.4365 1.5127 19.3967C3.40669 20.6112 5.65543 21.319 8.07139 21.319C15.9416 21.319 20.2447 14.7997 20.2447 9.14568C20.2447 8.96026 20.2409 8.77527 20.2329 8.59154C21.0685 7.98956 21.7941 7.23561 22.3673 6.37751Z" fill="white"/>
</g>
</svg>
